<svg width="35" height="35" viewBox="0 0 35 35" fill="none" xmlns="http://www.w3.org/2000/svg">
<path fill-rule="evenodd" clip-rule="evenodd" d="M3 0C1.34314 0 0 1.34315 0 3V32C0 33.6569 1.34314 35 3 35H32C33.6569 35 35 33.6569 35 32V3C35 1.34315 33.6569 0 32 0H3ZM16.05 12.65V26H19.175V12.65H16.05ZM16.175 9.9C16.5583 10.2667 17.0417 10.45 17.625 10.45C18.225 10.45 18.7083 10.2667 19.075 9.9C19.4417 9.51666 19.625 9.05 19.625 8.5C19.625 7.98333 19.4333 7.55833 19.05 7.225C18.6833 6.875 18.2083 6.7 17.625 6.7C17.0417 6.7 16.5583 6.88333 16.175 7.25C15.8083 7.6 15.625 8.04166 15.625 8.575C15.625 9.09167 15.8083 9.53333 16.175 9.9Z" fill="black"/>
</svg>
