<svg width="28" height="28" viewBox="0 0 28 28" fill="none" xmlns="http://www.w3.org/2000/svg">
<g clip-path="url(#clip0_261_1527)">
<path d="M24.1113 6.22222H17.1113V25.6667H25.6669V7.77778C25.6669 7.36522 25.503 6.96956 25.2113 6.67783C24.9195 6.38611 24.5239 6.22222 24.1113 6.22222ZM20.2224 19.4444H18.6669V17.8889H20.2224V19.4444ZM20.2224 15.5556H18.6669V14H20.2224V15.5556ZM20.2224 11.6667H18.6669V10.1111H20.2224V11.6667ZM23.3335 19.4444H21.778V17.8889H23.3335V19.4444ZM23.3335 15.5556H21.778V14H23.3335V15.5556ZM23.3335 11.6667H21.778V10.1111H23.3335V11.6667Z" fill="black"/>
<path d="M13.9069 2.33334H4.76022C4.3229 2.33334 3.9035 2.50706 3.59428 2.81628C3.28505 3.12551 3.11133 3.54491 3.11133 3.98222V25.6667H7.00022V23.3333H11.6669V25.6667H15.5558V3.98222C15.5558 3.54491 15.3821 3.12551 15.0728 2.81628C14.7636 2.50706 14.3442 2.33334 13.9069 2.33334ZM7.00022 19.4444H5.44466V17.8889H7.00022V19.4444ZM7.00022 15.5556H5.44466V14H7.00022V15.5556ZM7.00022 11.6667H5.44466V10.1111H7.00022V11.6667ZM7.00022 7.77778H5.44466V6.22223H7.00022V7.77778ZM10.1113 19.4444H8.55577V17.8889H10.1113V19.4444ZM10.1113 15.5556H8.55577V14H10.1113V15.5556ZM10.1113 11.6667H8.55577V10.1111H10.1113V11.6667ZM10.1113 7.77778H8.55577V6.22223H10.1113V7.77778ZM13.2224 19.4444H11.6669V17.8889H13.2224V19.4444ZM13.2224 15.5556H11.6669V14H13.2224V15.5556ZM13.2224 11.6667H11.6669V10.1111H13.2224V11.6667ZM13.2224 7.77778H11.6669V6.22223H13.2224V7.77778Z" fill="black"/>
</g>
<defs>
<clipPath id="clip0_261_1527">
<rect width="28" height="28" fill="white"/>
</clipPath>
</defs>
</svg>
