<svg width="21" height="21" viewBox="0 0 21 21" fill="none" xmlns="http://www.w3.org/2000/svg">
<g clip-path="url(#clip0_260_1256)">
<path d="M18.813 3.50001H16.4796V5.25001C16.4796 5.41854 16.4464 5.58542 16.382 5.74112C16.3175 5.89682 16.2229 6.03829 16.1038 6.15746C15.9846 6.27663 15.8431 6.37116 15.6874 6.43565C15.5317 6.50015 15.3648 6.53334 15.1963 6.53334C15.0278 6.53334 14.8609 6.50015 14.7052 6.43565C14.5495 6.37116 14.408 6.27663 14.2889 6.15746C14.1697 6.03829 14.0752 5.89682 14.0107 5.74112C13.9462 5.58542 13.913 5.41854 13.913 5.25001V3.50001H7.11714V5.25001C7.11714 5.59037 6.98193 5.91679 6.74126 6.15746C6.50059 6.39813 6.17417 6.53334 5.83381 6.53334C5.49345 6.53334 5.16703 6.39813 4.92636 6.15746C4.68568 5.91679 4.55048 5.59037 4.55048 5.25001V3.50001H2.21714C2.07832 3.49843 1.9406 3.5247 1.81211 3.57728C1.68362 3.62985 1.56698 3.70766 1.46908 3.8061C1.37119 3.90453 1.29403 4.0216 1.24217 4.15038C1.1903 4.27916 1.16479 4.41703 1.16714 4.55584V17.6108C1.16482 17.7472 1.18939 17.8827 1.23944 18.0095C1.28949 18.1364 1.36405 18.2522 1.45884 18.3502C1.55364 18.4483 1.66683 18.5267 1.79193 18.581C1.91704 18.6353 2.05161 18.6644 2.18798 18.6667H18.813C18.9493 18.6644 19.0839 18.6353 19.209 18.581C19.3341 18.5267 19.4473 18.4483 19.5421 18.3502C19.6369 18.2522 19.7115 18.1364 19.7615 18.0095C19.8116 17.8827 19.8361 17.7472 19.8338 17.6108V4.55584C19.8361 4.41948 19.8116 4.284 19.7615 4.15713C19.7115 4.03027 19.6369 3.91451 19.5421 3.81646C19.4473 3.71841 19.3341 3.64 19.209 3.5857C19.0839 3.5314 18.9493 3.50229 18.813 3.50001ZM5.83381 15.1667H4.66714V14H5.83381V15.1667ZM5.83381 12.25H4.66714V11.0833H5.83381V12.25ZM5.83381 9.33334H4.66714V8.16667H5.83381V9.33334ZM9.33381 15.1667H8.16714V14H9.33381V15.1667ZM9.33381 12.25H8.16714V11.0833H9.33381V12.25ZM9.33381 9.33334H8.16714V8.16667H9.33381V9.33334ZM12.8338 15.1667H11.6671V14H12.8338V15.1667ZM12.8338 12.25H11.6671V11.0833H12.8338V12.25ZM12.8338 9.33334H11.6671V8.16667H12.8338V9.33334ZM16.3338 15.1667H15.1671V14H16.3338V15.1667ZM16.3338 12.25H15.1671V11.0833H16.3338V12.25ZM16.3338 9.33334H15.1671V8.16667H16.3338V9.33334Z" fill="black"/>
<path d="M5.83333 5.83335C5.98804 5.83335 6.13642 5.7719 6.24581 5.6625C6.35521 5.5531 6.41667 5.40473 6.41667 5.25002V1.75002C6.41667 1.59531 6.35521 1.44694 6.24581 1.33754C6.13642 1.22815 5.98804 1.16669 5.83333 1.16669C5.67862 1.16669 5.53025 1.22815 5.42085 1.33754C5.31146 1.44694 5.25 1.59531 5.25 1.75002V5.25002C5.25 5.40473 5.31146 5.5531 5.42085 5.6625C5.53025 5.7719 5.67862 5.83335 5.83333 5.83335Z" fill="black"/>
<path d="M15.1663 5.83335C15.3211 5.83335 15.4694 5.7719 15.5788 5.6625C15.6882 5.5531 15.7497 5.40473 15.7497 5.25002V1.75002C15.7497 1.59531 15.6882 1.44694 15.5788 1.33754C15.4694 1.22815 15.3211 1.16669 15.1663 1.16669C15.0116 1.16669 14.8633 1.22815 14.7539 1.33754C14.6445 1.44694 14.583 1.59531 14.583 1.75002V5.25002C14.583 5.40473 14.6445 5.5531 14.7539 5.6625C14.8633 5.7719 15.0116 5.83335 15.1663 5.83335Z" fill="black"/>
</g>
<defs>
<clipPath id="clip0_260_1256">
<rect width="21" height="21" fill="white"/>
</clipPath>
</defs>
</svg>
