<svg width="80" height="80" viewBox="0 0 80 80" fill="none" xmlns="http://www.w3.org/2000/svg">
<g clip-path="url(#clip0_439_638)">
<path d="M40.3451 5.08828e-06C41.6551 5.08828e-06 42.9451 0.0850051 44.1451 0.285005C45.327 0.439868 46.493 0.697511 47.6301 1.05501C48.7701 1.4 49.8851 1.83001 51.0001 2.37001C52.0851 2.88501 53.2001 3.51501 54.3151 4.20001C56.2001 5.4 58.0551 6.37001 59.9451 7.14501C63.6658 8.63417 67.6003 9.5203 71.6001 9.77001C73.6301 9.915 75.7151 10 77.8851 10V30C77.8851 33.8 77.4001 37.4 76.4301 40.83C75.4984 44.2111 74.1744 47.4715 72.4851 50.545C70.803 53.6142 68.8127 56.5041 66.5451 59.17C64.2427 61.8965 61.7498 64.4563 59.0851 66.83C56.3852 69.2107 53.5415 71.4232 50.5701 73.455C47.6001 75.515 44.6001 77.43 41.6001 79.17L40.4001 79.885L39.2001 79.17C36.1161 77.3845 33.1038 75.478 30.1701 73.455C27.1821 71.4461 24.3369 69.2325 21.6551 66.83C18.9921 64.4562 16.5008 61.8965 14.2001 59.17C11.9386 56.4928 9.9394 53.6045 8.23011 50.545C6.56977 47.4579 5.24713 44.2007 4.28511 40.83C3.30896 37.3037 2.82769 33.6588 2.85511 30V10C5.03011 10 7.11511 9.915 9.14511 9.77001C11.1434 9.63121 13.1288 9.34543 15.0851 8.915C17.0001 8.48501 18.9151 7.91501 20.8001 7.14501C22.7561 6.35558 24.6315 5.37939 26.4001 4.23001C28.6001 2.80001 30.8301 1.74501 33.0301 1.05C35.3994 0.323663 37.8671 -0.0305525 40.3451 5.08828e-06ZM72.8551 14.915C69.0703 14.7314 65.3206 14.0986 61.6851 13.03C58.0688 11.9513 54.6243 10.3637 51.4551 8.31501C49.8113 7.23599 48.026 6.38963 46.1501 5.8C44.2763 5.23368 42.3276 4.95385 40.3701 4.97001C38.3981 4.95725 36.4351 5.23696 34.5451 5.8C32.6665 6.37046 30.8835 7.21814 29.2551 8.31501C26.0804 10.3749 22.627 11.9694 19.0001 13.05C15.4551 14.08 11.7451 14.71 7.85511 14.94V30.025C7.85511 33.34 8.28511 36.51 9.14511 39.565C10.0212 42.5935 11.2285 45.5161 12.7451 48.28C14.2799 51.0727 16.0888 53.7057 18.1451 56.14C20.2301 58.595 22.4551 60.88 24.8551 63.05C27.2551 65.225 29.7701 67.225 32.4001 69.08C35.0551 70.94 37.7151 72.625 40.3701 74.165C43.0887 72.5824 45.7394 70.8858 48.3151 69.08C50.9625 67.2308 53.4908 65.2169 55.8851 63.05C58.2851 60.88 60.5151 58.595 62.6001 56.14C64.6567 53.7058 66.4656 51.0728 68.0001 48.28C69.51 45.5196 70.6994 42.5956 71.5451 39.565C72.4313 36.4631 72.8723 33.251 72.8551 30.025V14.915Z" fill="black"/>
<path fill-rule="evenodd" clip-rule="evenodd" d="M58.9851 23.545L56.7851 21.655L54.7551 21.83L32.9551 47.57L25.5301 36.97L23.5301 36.63L21.2151 38.285L20.8701 40.285L30.4151 53.915L31.5001 54.515L33.7851 54.655L34.9551 54.145L59.1301 25.57L58.9851 23.545Z" fill="black"/>
</g>
<defs>
<clipPath id="clip0_439_638">
<rect width="80" height="80" fill="white"/>
</clipPath>
</defs>
</svg>
