<svg width="24" height="24" viewBox="0 0 24 24" fill="none" xmlns="http://www.w3.org/2000/svg">
<path d="M13.7143 7.71432C15.6079 7.71432 17.1429 6.1793 17.1429 4.28575C17.1429 2.3922 15.6079 0.857178 13.7143 0.857178C11.8208 0.857178 10.2858 2.3922 10.2858 4.28575C10.2858 6.1793 11.8208 7.71432 13.7143 7.71432Z" stroke="black" stroke-linecap="round" stroke-linejoin="round"/>
<path d="M13.7143 7.71436V14.5715H18.8572C19.3118 14.5715 19.7479 14.7521 20.0694 15.0736C20.3909 15.3951 20.5715 15.8311 20.5715 16.2858V23.1429M9.42862 11.1429C8.34555 11.144 7.28298 11.4383 6.35362 11.9944C5.42426 12.5506 4.66277 13.348 4.14994 14.3019C3.6371 15.2559 3.39205 16.3309 3.44077 17.4128C3.48949 18.4948 3.83016 19.5434 4.42666 20.4474C5.02316 21.3514 5.85322 22.0771 6.82881 22.5475C7.80439 23.0179 8.88911 23.2154 9.96789 23.1192C11.0467 23.0229 12.0793 22.6365 12.9562 22.0008C13.8331 21.3651 14.5216 20.504 14.9486 19.5086" stroke="black" stroke-linecap="round" stroke-linejoin="round"/>
</svg>
