<svg width="80" height="80" viewBox="0 0 80 80" fill="none" xmlns="http://www.w3.org/2000/svg">
<path d="M53.3335 36.6667C58.8668 36.6667 63.3002 32.2 63.3002 26.6667C63.3002 21.1333 58.8668 16.6667 53.3335 16.6667C47.8002 16.6667 43.3335 21.1333 43.3335 26.6667C43.3335 32.2 47.8002 36.6667 53.3335 36.6667ZM26.6668 36.6667C32.2002 36.6667 36.6335 32.2 36.6335 26.6667C36.6335 21.1333 32.2002 16.6667 26.6668 16.6667C21.1335 16.6667 16.6668 21.1333 16.6668 26.6667C16.6668 32.2 21.1335 36.6667 26.6668 36.6667ZM26.6668 43.3333C18.9002 43.3333 3.3335 47.2333 3.3335 55V63.3333H50.0002V55C50.0002 47.2333 34.4335 43.3333 26.6668 43.3333ZM53.3335 43.3333C52.3668 43.3333 51.2668 43.4 50.1002 43.5C53.9668 46.3 56.6668 50.0667 56.6668 55V63.3333H76.6668V55C76.6668 47.2333 61.1002 43.3333 53.3335 43.3333Z" fill="black"/>
</svg>
