<svg width="36" height="39" viewBox="0 0 36 39" fill="none" xmlns="http://www.w3.org/2000/svg">
<path d="M36 16.2002C36 15.5427 35.3763 15.0641 34.7412 15.2343L19.0521 19.4382C18.8825 19.4836 18.704 19.4836 18.5344 19.4382L1.25882 14.8092C0.623697 14.639 0 15.1176 0 15.7751V32.248C0 32.7006 0.303997 33.0968 0.741181 33.2139L18.5344 37.9816C18.704 38.027 18.8825 38.027 19.0521 37.9816L35.2588 33.639C35.696 33.5219 36 33.1257 36 32.6731V16.2002Z" fill="black"/>
<path d="M36 7.10648C36 6.65434 35.6966 6.25845 35.26 6.14088L19.0763 0.0343986C18.8915 -0.0153759 18.6963 -0.011054 18.5138 0.0468507L0.697501 5.70119C0.282165 5.833 0 6.21859 0 6.65434V10.248C0 10.7006 0.303997 11.0967 0.741181 11.2139L18.5344 15.9816C18.704 16.027 18.8825 16.027 19.0521 15.9816L35.2588 11.639C35.696 11.5218 36 11.1257 36 10.673V7.10648Z" fill="black"/>
</svg>
