<svg width="23" height="22" viewBox="0 0 23 22" fill="none" xmlns="http://www.w3.org/2000/svg">
<path d="M20.3337 11H9.25033M18.0003 14.5L21.5003 11L18.0003 7.49999M12.167 5.16666V3.99999C12.167 3.38115 11.9212 2.78766 11.4836 2.35007C11.046 1.91249 10.4525 1.66666 9.83366 1.66666H4.00033C3.38149 1.66666 2.78799 1.91249 2.35041 2.35007C1.91282 2.78766 1.66699 3.38115 1.66699 3.99999V18C1.66699 18.6188 1.91282 19.2123 2.35041 19.6499C2.78799 20.0875 3.38149 20.3333 4.00033 20.3333H9.83366C10.4525 20.3333 11.046 20.0875 11.4836 19.6499C11.9212 19.2123 12.167 18.6188 12.167 18V16.8333" stroke="black" stroke-width="3" stroke-linecap="round" stroke-linejoin="round"/>
</svg>
