<svg width="80" height="80" viewBox="0 0 80 80" fill="none" xmlns="http://www.w3.org/2000/svg">
<path d="M39.9998 13.3333H16.6665C14.0143 13.3333 11.4708 14.3869 9.59544 16.2623C7.72007 18.1376 6.6665 20.6812 6.6665 23.3333V50C6.6665 52.6522 7.72007 55.1957 9.59544 57.0711C11.4708 58.9464 14.0143 60 16.6665 60L13.3332 63.3333V66.6667H16.6665L23.3332 59.9L29.9998 60V43.3333H13.3332V20H43.3332V26.6667H49.9998V23.3333C49.9998 20.6812 48.9463 18.1376 47.0709 16.2623C45.1955 14.3869 42.652 13.3333 39.9998 13.3333ZM16.6665 46.6667C17.5506 46.6667 18.3984 47.0179 19.0235 47.643C19.6486 48.2681 19.9998 49.1159 19.9998 50C19.9998 50.884 19.6486 51.7319 19.0235 52.357C18.3984 52.9821 17.5506 53.3333 16.6665 53.3333C15.7824 53.3333 14.9346 52.9821 14.3095 52.357C13.6844 51.7319 13.3332 50.884 13.3332 50C13.3332 49.1159 13.6844 48.2681 14.3095 47.643C14.9346 47.0179 15.7824 46.6667 16.6665 46.6667ZM68.5665 32.2C68.0998 30.8667 66.8332 30 65.3332 30H41.3665C39.8332 30 38.5998 30.8667 38.0998 32.2L33.3332 45.9V64.2667C33.3332 65.5333 34.3998 66.6667 35.6665 66.6667H37.7332C38.9998 66.6667 39.9998 65.4 39.9998 64.1333V60H66.6665V64.1333C66.6665 65.4 67.6998 66.6667 68.9665 66.6667H70.9998C72.2665 66.6667 73.3332 65.5333 73.3332 64.2667V45.9L68.5665 32.2ZM41.3665 33.3333H65.3332L68.7665 43.3333H37.9332L41.3665 33.3333ZM39.9998 53.3333C39.1158 53.3333 38.2679 52.9821 37.6428 52.357C37.0177 51.7319 36.6665 50.884 36.6665 50C36.6665 49.1159 37.0177 48.2681 37.6428 47.643C38.2679 47.0179 39.1158 46.6667 39.9998 46.6667C40.8839 46.6667 41.7317 47.0179 42.3569 47.643C42.982 48.2681 43.3332 49.1159 43.3332 50C43.3332 50.884 42.982 51.7319 42.3569 52.357C41.7317 52.9821 40.8839 53.3333 39.9998 53.3333ZM66.6665 53.3333C65.7824 53.3333 64.9346 52.9821 64.3095 52.357C63.6844 51.7319 63.3332 50.884 63.3332 50C63.3332 49.1159 63.6844 48.2681 64.3095 47.643C64.9346 47.0179 65.7824 46.6667 66.6665 46.6667C67.5506 46.6667 68.3984 47.0179 69.0235 47.643C69.6486 48.2681 69.9998 49.1159 69.9998 50C69.9998 50.884 69.6486 51.7319 69.0235 52.357C68.3984 52.9821 67.5506 53.3333 66.6665 53.3333Z" fill="black"/>
</svg>
