<svg width="32" height="32" viewBox="0 0 32 32" fill="none" xmlns="http://www.w3.org/2000/svg">
<path d="M25.648 11.2653H6.35001C5.43573 11.2653 5.04389 10.2694 5.76226 9.79593L15.4112 3.47756C15.5894 3.37277 15.7923 3.3175 15.999 3.3175C16.2057 3.3175 16.4086 3.37277 16.5867 3.47756L26.2357 9.79593C26.9541 10.2694 26.5623 11.2653 25.648 11.2653Z" stroke="black" stroke-width="2" stroke-linecap="round" stroke-linejoin="round"/>
<path d="M25.7959 20.2449H6.20402C5.75318 20.2449 5.3877 20.6104 5.3877 21.0613V23.5102C5.3877 23.9611 5.75318 24.3266 6.20402 24.3266H25.7959C26.2467 24.3266 26.6122 23.9611 26.6122 23.5102V21.0613C26.6122 20.6104 26.2467 20.2449 25.7959 20.2449Z" stroke="black" stroke-width="2" stroke-linecap="round" stroke-linejoin="round"/>
<path d="M7.83594 11.2653V20.2449M11.9176 11.2653V20.2449M15.9992 11.2653V20.2449M20.0808 11.2653V20.2449M24.1625 11.2653V20.2449" stroke="black" stroke-width="2" stroke-linecap="round" stroke-linejoin="round"/>
<circle cx="16" cy="16" r="15" stroke="black" stroke-width="2"/>
</svg>
