<svg width="343" height="331" viewBox="0 0 343 331" fill="none" xmlns="http://www.w3.org/2000/svg">
<path d="M157.885 249L343 71.3059L323.768 51L158.349 209.788L75.7065 126.589L56 146.429L157.885 249Z" fill="#E3B02B"/>
<path d="M305 165.5C305 242.544 242.544 305 165.5 305C88.4563 305 26 242.544 26 165.5C26 88.4563 88.4563 26 165.5 26C211.609 26 252.494 48.3706 277.892 82.8504L296.808 64.7469C266.554 25.3763 218.99 0 165.5 0C74.0969 0 0 74.0969 0 165.5C0 256.903 74.0969 331 165.5 331C256.903 331 331 256.903 331 165.5C331 144.214 326.981 123.866 319.662 105.175L299.011 124.938C302.906 137.773 305 151.392 305 165.5Z" fill="#E3B02B"/>
</svg>
