<svg width="34" height="26" viewBox="0 0 34 26" fill="none" xmlns="http://www.w3.org/2000/svg">
<path d="M5.80901 0.785721C4.45925 0.785721 3.16477 1.32191 2.21034 2.27634C1.25592 3.23076 0.719727 4.52524 0.719727 5.87501V6.89286H33.2857V5.87501C33.2857 4.52524 32.7495 3.23076 31.7951 2.27634C30.8407 1.32191 29.5462 0.785721 28.1964 0.785721H5.80901ZM0.719727 20.125V8.92858H33.2857V20.125C33.2857 21.4748 32.7495 22.7693 31.7951 23.7237C30.8407 24.6781 29.5462 25.2143 28.1964 25.2143H5.81037C4.46061 25.2143 3.16613 24.6781 2.2117 23.7237C1.25727 22.7693 0.721084 21.4748 0.721084 20.125H0.719727ZM22.7679 16.3929C22.4979 16.3929 22.239 16.5001 22.0481 16.691C21.8573 16.8819 21.75 17.1408 21.75 17.4107C21.75 17.6807 21.8573 17.9396 22.0481 18.1305C22.239 18.3213 22.4979 18.4286 22.7679 18.4286H27.5179C27.7878 18.4286 28.0467 18.3213 28.2376 18.1305C28.4285 17.9396 28.5357 17.6807 28.5357 17.4107C28.5357 17.1408 28.4285 16.8819 28.2376 16.691C28.0467 16.5001 27.7878 16.3929 27.5179 16.3929H22.7679Z" fill="black"/>
</svg>
