<svg width="32" height="32" viewBox="0 0 32 32" fill="none" xmlns="http://www.w3.org/2000/svg">
<path fill-rule="evenodd" clip-rule="evenodd" d="M16.0003 3.33335C13.7849 3.33295 11.6081 3.91363 9.68714 5.01743C7.76623 6.12124 6.16842 7.70956 5.0532 9.62386C3.93798 11.5382 3.34435 13.7115 3.33157 15.9269C3.31878 18.1424 3.88729 20.3224 4.98034 22.2494C5.71914 21.2893 6.66886 20.5119 7.75606 19.9773C8.84327 19.4428 10.0388 19.1654 11.2503 19.1667H20.7503C21.9618 19.1654 23.1574 19.4428 24.2446 19.9773C25.3318 20.5119 26.2815 21.2893 27.0203 22.2494C28.1134 20.3224 28.6819 18.1424 28.6691 15.9269C28.6563 13.7115 28.0627 11.5382 26.9475 9.62386C25.8323 7.70956 24.2345 6.12124 22.3135 5.01743C20.3926 3.91363 18.2158 3.33295 16.0003 3.33335ZM28.5768 25.6204C30.6937 22.8605 31.8388 19.4782 31.8337 16C31.8337 7.25527 24.7451 0.166687 16.0003 0.166687C7.25559 0.166687 0.16701 7.25527 0.16701 16C0.161783 19.4783 1.30686 22.8606 3.42393 25.6204L3.41601 25.6489L3.97809 26.3028C5.46308 28.0389 7.30687 29.4324 9.38238 30.3872C11.4579 31.342 13.7158 31.8354 16.0003 31.8334C19.2103 31.8393 22.3454 30.8642 24.9858 29.0388C26.1114 28.261 27.1321 27.3415 28.0226 26.3028L28.5847 25.6489L28.5768 25.6204ZM16.0003 6.50002C14.7406 6.50002 13.5324 7.00046 12.6416 7.89126C11.7508 8.78206 11.2503 9.99024 11.2503 11.25C11.2503 12.5098 11.7508 13.718 12.6416 14.6088C13.5324 15.4996 14.7406 16 16.0003 16C17.2601 16 18.4683 15.4996 19.3591 14.6088C20.2499 13.718 20.7503 12.5098 20.7503 11.25C20.7503 9.99024 20.2499 8.78206 19.3591 7.89126C18.4683 7.00046 17.2601 6.50002 16.0003 6.50002Z" fill="black"/>
</svg>
