<svg width="39" height="39" viewBox="0 0 39 39" fill="none" xmlns="http://www.w3.org/2000/svg">
<path d="M19.5 0C8.73052 0 0 8.73052 0 19.5C0 30.2701 8.73052 39 19.5 39C30.2701 39 39 30.2701 39 19.5C39 8.73052 30.2701 0 19.5 0ZM19.5 36.6009C10.0919 36.6009 2.4375 28.9081 2.4375 19.4999C2.4375 10.0918 10.0919 2.43742 19.5 2.43742C28.9081 2.43742 36.5625 10.0918 36.5625 19.4999C36.5625 28.908 28.9081 36.6009 19.5 36.6009ZM28.0312 18.2812H20.7188V10.9688C20.7188 10.296 20.1728 9.75 19.5 9.75C18.8272 9.75 18.2812 10.296 18.2812 10.9688V18.2812H10.9688C10.296 18.2812 9.75 18.8272 9.75 19.5C9.75 20.1728 10.296 20.7188 10.9688 20.7188H18.2812V28.0312C18.2812 28.704 18.8272 29.25 19.5 29.25C20.1728 29.25 20.7188 28.704 20.7188 28.0312V20.7188H28.0312C28.704 20.7188 29.25 20.1728 29.25 19.5C29.25 18.8272 28.704 18.2812 28.0312 18.2812Z" fill="black"/>
</svg>
