<svg width="28" height="28" viewBox="0 0 28 28" fill="none" xmlns="http://www.w3.org/2000/svg">
<path d="M19.0863 16.3333C19.1797 15.5633 19.2497 14.7933 19.2497 14C19.2497 13.2067 19.1797 12.4367 19.0863 11.6667H23.0297C23.2163 12.4133 23.333 13.195 23.333 14C23.333 14.805 23.2163 15.5867 23.0297 16.3333M17.0213 22.82C17.7213 21.525 18.258 20.125 18.6313 18.6667H22.073C20.9427 20.613 19.1495 22.0873 17.0213 22.82ZM16.7297 16.3333H11.2697C11.153 15.5633 11.083 14.7933 11.083 14C11.083 13.2067 11.153 12.425 11.2697 11.6667H16.7297C16.8347 12.425 16.9163 13.2067 16.9163 14C16.9163 14.7933 16.8347 15.5633 16.7297 16.3333ZM13.9997 23.2867C13.0313 21.8867 12.2497 20.335 11.7713 18.6667H16.228C15.7497 20.335 14.968 21.8867 13.9997 23.2867ZM9.33301 9.33333H5.92634C7.04501 7.38175 8.83694 5.90506 10.9663 5.18C10.2663 6.475 9.74134 7.875 9.33301 9.33333ZM5.92634 18.6667H9.33301C9.74134 20.125 10.2663 21.525 10.9663 22.82C8.8414 22.0869 7.052 20.6123 5.92634 18.6667ZM4.96967 16.3333C4.78301 15.5867 4.66634 14.805 4.66634 14C4.66634 13.195 4.78301 12.4133 4.96967 11.6667H8.91301C8.81967 12.4367 8.74967 13.2067 8.74967 14C8.74967 14.7933 8.81967 15.5633 8.91301 16.3333M13.9997 4.70166C14.968 6.10166 15.7497 7.665 16.228 9.33333H11.7713C12.2497 7.665 13.0313 6.10166 13.9997 4.70166ZM22.073 9.33333H18.6313C18.2662 7.88836 17.7255 6.49354 17.0213 5.18C19.168 5.915 20.953 7.39666 22.073 9.33333ZM13.9997 2.33333C7.54801 2.33333 2.33301 7.58333 2.33301 14C2.33301 17.0942 3.56217 20.0617 5.7501 22.2496C6.83345 23.3329 8.11957 24.1923 9.53503 24.7786C10.9505 25.3649 12.4676 25.6667 13.9997 25.6667C17.0939 25.6667 20.0613 24.4375 22.2493 22.2496C24.4372 20.0617 25.6663 17.0942 25.6663 14C25.6663 12.4679 25.3646 10.9508 24.7783 9.53536C24.192 8.11989 23.3326 6.83377 22.2493 5.75042C21.1659 4.66707 19.8798 3.80771 18.4643 3.2214C17.0489 2.6351 15.5318 2.33333 13.9997 2.33333Z" fill="black"/>
</svg>
