<svg width="29" height="29" viewBox="0 0 29 29" fill="none" xmlns="http://www.w3.org/2000/svg">
<path d="M22.837 5.9632C21.7547 4.86991 20.4655 4.00308 19.0447 3.41326C17.6238 2.82343 16.0997 2.52242 14.5613 2.52778C8.11549 2.52778 2.86202 7.78125 2.86202 14.2271C2.86202 16.2931 3.40508 18.3 4.42036 20.0708L2.76758 26.1389L8.96549 24.5097C10.6773 25.4424 12.6016 25.9382 14.5613 25.9382C21.0072 25.9382 26.2606 20.6847 26.2606 14.2389C26.2606 11.1104 25.0447 8.17083 22.837 5.9632ZM14.5613 23.9549C12.8141 23.9549 11.1023 23.4826 9.60299 22.5972L9.24883 22.3847L5.56549 23.3528L6.54536 19.7639L6.30924 19.3979C5.33853 17.8478 4.82309 16.0561 4.82174 14.2271C4.82174 8.86736 9.1898 4.49931 14.5495 4.49931C17.1467 4.49931 19.5905 5.51459 21.4204 7.35625C22.3264 8.25815 23.0444 9.33092 23.5328 10.5124C24.0212 11.6938 24.2703 12.9605 24.2655 14.2389C24.2891 19.5986 19.921 23.9549 14.5613 23.9549ZM19.8974 16.6826C19.6023 16.541 18.162 15.8326 17.9023 15.7264C17.6308 15.6319 17.4419 15.5847 17.2412 15.8681C17.0405 16.1632 16.4856 16.8243 16.3204 17.0132C16.1551 17.2139 15.978 17.2375 15.6829 17.084C15.3877 16.9424 14.4433 16.6236 13.3335 15.6319C12.4599 14.8528 11.8815 13.8965 11.7044 13.6014C11.5391 13.3063 11.6808 13.1528 11.8342 12.9993C11.9641 12.8694 12.1294 12.6569 12.271 12.4917C12.4127 12.3264 12.4717 12.1965 12.5662 12.0076C12.6606 11.8069 12.6134 11.6417 12.5426 11.5C12.4717 11.3583 11.8815 9.91806 11.6454 9.32778C11.4092 8.76111 11.1613 8.83195 10.9842 8.82014H10.4176C10.2169 8.82014 9.90994 8.89097 9.63841 9.18611C9.37869 9.48125 8.62313 10.1896 8.62313 11.6299C8.62313 13.0701 9.67383 14.4632 9.81549 14.6521C9.95716 14.8528 11.8815 17.8042 14.8092 19.0674C15.5058 19.3743 16.0488 19.5514 16.4738 19.6812C17.1704 19.9056 17.8079 19.8701 18.3155 19.7993C18.8822 19.7167 20.0509 19.091 20.287 18.4062C20.5349 17.7215 20.5349 17.1431 20.4523 17.0132C20.3697 16.8833 20.1926 16.8243 19.8974 16.6826Z" fill="white"/>
</svg>
